<?xml version="1.0" encoding="utf-8"?>
<!-- Generator: Adobe Illustrator 26.0.0, SVG Export Plug-In . SVG Version: 6.00 Build 0)  -->
<svg version="1.1" xmlns="http://www.w3.org/2000/svg" xmlns:xlink="http://www.w3.org/1999/xlink" x="0px" y="0px"
	 viewBox="0 0 612 792" style="enable-background:new 0 0 612 792;" xml:space="preserve">
<style type="text/css">
	.st0{fill:#EBD996;}
	.st1{fill:#F0516D;}
	.st2{fill:#80764E;}
	.st3{fill:#00B48A;}
	.st4{fill:#754C29;}
</style>
<g id="sheep">
	<ellipse class="st0" cx="143.09" cy="291.08" rx="49.19" ry="43.62"/>
	<circle cx="125.25" cy="273.53" r="5.35"/>
	<path class="st1" d="M94.78,299.35c0,0,3.29,4.14,27.65,5.88c0,0,1.25,20.29-13.33,17.38C109.1,322.61,98.45,315.67,94.78,299.35z"
		/>
</g>
<g id="legs">
	<path class="st0" d="M342.11,362.99c0,0,30.15,22.38,50.29,33.01l-1.22-13.07l9.77,1.4c0,0-23.63-47.42-45.97-46.32
		C340.01,338.75,342.11,362.99,342.11,362.99z"/>
	<path class="st0" d="M300.68,378.49c0,0,24.68,28.29,42.1,42.97l1.59-13.03l9.25,3.45c0,0-12.98-51.37-35.04-55.06
		C303.8,354.36,300.68,378.49,300.68,378.49z"/>
	<path class="st0" d="M181.04,365.2c0,0-17.87,33.02-25.53,54.47l12.76-3.06v9.87c0,0,43.58-30.13,39.33-52.09
		C204.75,359.68,181.04,365.2,181.04,365.2z"/>
	<path class="st0" d="M156.44,343.73c0,0-28.78,24.12-43.8,41.24l12.99,1.85L122,396c0,0,51.61-11.96,55.74-33.94
		C180.51,347.33,156.44,343.73,156.44,343.73z"/>
	<polyline class="st2" points="127.32,369.87 143.25,389.33 121.69,396.46 125.64,386.82 112.64,384.97 127.32,369.87 	"/>
	<polygon class="st2" points="182.8,414.94 161.97,403.81 155.51,419.67 168.12,416.97 168.27,426.48 	"/>
	<polygon class="st2" points="327.95,407.66 347.26,392.6 353.62,411.89 344.37,408.44 342.78,421.46 	"/>
	<polygon class="st2" points="375.08,385.74 389.39,365.03 400.95,384.34 391.18,382.93 392.4,396 	"/>
</g>
<g id="wool">
	<path class="st3" d="M145.66,273.96c0,0-7.85-52.96,52.95-55.15c0,0,40.65-44.79,93.45-1.9c0,0,61.1-38.27,59.73,30.32
		c0,0,63.67,12.6,24.09,61.62c0,0,26.27,66.86-40.11,59.72c0,0-16.85,42.38-60.56,9.56c0,0-19.91,32.94-55.15,7.66
		c0,0-50.55,26.04-62.81-16.85c0,0-42.13-10.72-13.79-45.19c0,0-2.72-3.48-5.49-8.72C132.02,303.77,125.81,284.41,145.66,273.96z"/>
</g>
<g id="wool_plus">
	<circle class="st4" cx="175.43" cy="249.23" r="6.27"/>
	<circle class="st4" cx="167.14" cy="329.76" r="6.87"/>
	<circle class="st4" cx="209.21" cy="360.15" r="6.38"/>
	<circle class="st4" cx="311.89" cy="351.01" r="7.27"/>
	<circle class="st4" cx="351.16" cy="306.06" r="6.71"/>
	<circle class="st4" cx="322.06" cy="233.68" r="6.89"/>
	<circle class="st4" cx="347.2" cy="261.92" r="6.42"/>
	<circle class="st4" cx="241.64" cy="220.32" r="6.47"/>
</g>
</svg>
